# xmcd
# 
# Track frame offsets:
#     183
#     15483
#     31613
#     44943
#     51970
#     66913
#     77523
#     93218
#     107945
#     123175
#     138813
#     146895
#     187908
#     202760
#     215420
#     226443
#     242095
# 
# Disc length: 3435
# 
# Revision: 1
# Processed by: cddbd v1.5.2PL0 Copyright (c) Steve Scherf et al.
# Submitted via: fre:ac v1.0.27
# 
DISCID=e50d6911
DTITLE=Billie Holiday - Billie and Count
DYEAR=0
DGENRE=Jazz
TTITLE0=Lover Man
TTITLE1=Do Nothin' Till Your Hear From Me
TTITLE2=My Man
TTITLE3=Them There Eyes
TTITLE4=I Cover the Waterfront
TTITLE5=Lover Come Back to Me
TTITLE6=Stormy Weather
TTITLE7=They Can't Take That Away From Me
TTITLE8=Willow Weep For Me
TTITLE9=You've Changed
TTITLE10=Swing Brother Swing!
TTITLE11=Fine and Mellow
TTITLE12=It's Easy To Remember
TTITLE13=What A Little Moonlight Can Do
TTITLE14=Fooling Myself
TTITLE15=Don't Stand Ghost of a Chance
TTITLE16=Don't Explain
EXTD=
EXTT0=
EXTT1=
EXTT2=
EXTT3=
EXTT4=
EXTT5=
EXTT6=
EXTT7=
EXTT8=
EXTT9=
EXTT10=
EXTT11=
EXTT12=
EXTT13=
EXTT14=
EXTT15=
EXTT16=
PLAYORDER=
